<svg xmlns="http://www.w3.org/2000/svg" xmlns:xlink="http://www.w3.org/1999/xlink" width="500" zoomAndPan="magnify" viewBox="0 0 375 374.999991" height="500" preserveAspectRatio="xMidYMid meet" version="1.0"><defs><clipPath id="0f66c30aa7"><path d="M 164 166.144531 L 182 166.144531 L 182 184 L 164 184 Z M 164 166.144531 " clip-rule="nonzero"/></clipPath><clipPath id="d612749bf5"><path d="M 28 173 L 46 173 L 46 208.894531 L 28 208.894531 Z M 28 173 " clip-rule="nonzero"/></clipPath><clipPath id="4ab4d52c5b"><path d="M 55 173 L 105 173 L 105 208.894531 L 55 208.894531 Z M 55 173 " clip-rule="nonzero"/></clipPath><clipPath id="95e2472649"><path d="M 115 173 L 160 173 L 160 208.894531 L 115 208.894531 Z M 115 173 " clip-rule="nonzero"/></clipPath><clipPath id="689ed00955"><path d="M 166 184 L 179 184 L 179 208.894531 L 166 208.894531 Z M 166 184 " clip-rule="nonzero"/></clipPath><clipPath id="cebf3a4ef4"><path d="M 187 173 L 235 173 L 235 208.894531 L 187 208.894531 Z M 187 173 " clip-rule="nonzero"/></clipPath><clipPath id="5acbac578e"><path d="M 239 174 L 288 174 L 288 208.894531 L 239 208.894531 Z M 239 174 " clip-rule="nonzero"/></clipPath><clipPath id="3f45ae65f0"><path d="M 295 173 L 347 173 L 347 208.894531 L 295 208.894531 Z M 295 173 " clip-rule="nonzero"/></clipPath></defs><g clip-path="url(#0f66c30aa7)"><path fill="#d82318" d="M 172.585938 166.144531 L 164.054688 174.675781 L 172.585938 183.203125 L 181.113281 174.675781 Z M 172.585938 166.144531 " fill-opacity="1" fill-rule="nonzero"/></g><g clip-path="url(#d612749bf5)"><path fill="#1c1c21" d="M 28.636719 200.238281 C 28.636719 204.609375 32.136719 208.105469 36.503906 208.105469 L 45.246094 208.105469 L 45.246094 173.488281 L 28.636719 173.488281 Z M 28.636719 200.238281 " fill-opacity="1" fill-rule="evenodd"/></g><g clip-path="url(#4ab4d52c5b)"><path fill="#1c1c21" d="M 96.988281 198.664062 L 71.464844 173.835938 C 66.222656 173.835938 60.976562 173.835938 55.730469 173.835938 L 55.730469 208.277344 L 63.425781 208.277344 L 63.425781 184.5 L 88.597656 208.277344 L 104.683594 208.277344 L 104.683594 173.835938 L 96.988281 173.835938 Z M 96.988281 198.664062 " fill-opacity="1" fill-rule="evenodd"/></g><g clip-path="url(#95e2472649)"><path fill="#1c1c21" d="M 126.183594 173.664062 L 115.34375 173.664062 L 115.34375 200.414062 C 115.34375 204.785156 118.839844 208.28125 123.210938 208.28125 L 131.949219 208.28125 L 131.949219 193.773438 L 157.648438 193.773438 L 157.648438 188.175781 L 131.949219 188.175781 L 131.949219 179.261719 L 159.921875 179.261719 L 159.921875 173.664062 Z M 126.183594 173.664062 " fill-opacity="1" fill-rule="evenodd"/></g><g clip-path="url(#689ed00955)"><path fill="#1c1c21" d="M 178.816406 184.328125 L 166.226562 184.328125 L 166.226562 208.28125 L 178.816406 208.28125 Z M 178.816406 184.328125 " fill-opacity="1" fill-rule="nonzero"/></g><g clip-path="url(#cebf3a4ef4)"><path fill="#1c1c21" d="M 204.683594 199.363281 L 204.683594 173.835938 L 187.375 173.835938 L 187.375 198.664062 C 187.375 203.90625 191.746094 208.277344 196.992188 208.277344 L 234.578125 208.277344 L 234.578125 202.332031 L 207.65625 202.332031 C 205.90625 202.332031 204.683594 200.933594 204.683594 199.363281 Z M 204.683594 199.363281 " fill-opacity="1" fill-rule="evenodd"/></g><g clip-path="url(#5acbac578e)"><path fill="#1c1c21" d="M 239.476562 199.015625 C 239.476562 204.261719 243.847656 208.632812 249.09375 208.632812 L 286.679688 208.632812 L 286.679688 202.6875 L 259.757812 202.6875 C 258.007812 202.6875 256.785156 201.289062 256.785156 199.714844 L 256.785156 193.421875 L 284.582031 193.421875 L 284.582031 187.476562 L 256.785156 187.476562 L 256.785156 180.132812 L 287.554688 180.132812 L 287.554688 174.191406 C 271.472656 174.191406 255.5625 174.191406 239.476562 174.191406 Z M 239.476562 199.015625 " fill-opacity="1" fill-rule="evenodd"/></g><g clip-path="url(#3f45ae65f0)"><path fill="#1c1c21" d="M 322.867188 173.664062 C 315.347656 173.664062 295.59375 173.664062 295.59375 173.664062 C 295.59375 173.664062 295.59375 195.171875 295.59375 199.714844 C 295.59375 204.085938 298.390625 208.109375 307.65625 208.109375 C 316.921875 208.109375 321.117188 208.109375 327.410156 208.109375 C 333.707031 208.109375 346.992188 205.484375 346.292969 189.75 C 345.59375 174.191406 330.382812 173.664062 322.867188 173.664062 Z M 329.335938 203.210938 L 317.621094 203.210938 C 313.25 203.210938 311.679688 201.8125 311.679688 197.617188 L 311.679688 179.085938 L 325.664062 178.910156 C 333.007812 178.910156 338.949219 182.582031 338.949219 191.5 C 338.949219 200.414062 332.132812 203.210938 329.335938 203.210938 Z M 329.335938 203.210938 " fill-opacity="1" fill-rule="evenodd"/></g></svg>